<?xml version="1.0" encoding="utf-8"?>
<!-- Generator: Adobe Illustrator 19.2.0, SVG Export Plug-In . SVG Version: 6.00 Build 0)  -->
<svg version="1.1" id="Layer_1" xmlns="http://www.w3.org/2000/svg" xmlns:xlink="http://www.w3.org/1999/xlink" x="0px" y="0px"
	 viewBox="0 0 237.6 48.5" style="enable-background:new 0 0 237.6 48.5;" xml:space="preserve">
<style type="text/css">
	.st0{opacity:0.8;}
	.st2{font-size:23px;}
</style>
<g>
	<path class="arc1" d="M25.1,43.7c0,0-0.2,0-0.7,0c-0.4,0-1.1,0-1.9-0.1c-0.4-0.1-0.9-0.1-1.4-0.2c-0.5-0.1-1-0.2-1.6-0.4
		c-0.6-0.1-1.1-0.4-1.7-0.6c-0.6-0.2-1.2-0.5-1.9-0.8c-0.6-0.4-1.3-0.7-1.9-1.1c-0.6-0.5-1.3-0.9-1.9-1.5c-1.3-1-2.4-2.4-3.4-3.9
		c-1-1.5-1.8-3.2-2.4-5s-0.8-3.7-0.9-5.6c0-1.9,0.2-3.9,0.8-5.7c0.6-1.8,1.3-3.5,2.3-5.1c1-1.5,2.1-2.9,3.4-3.9
		c0.6-0.6,1.3-1,1.9-1.5c0.6-0.4,1.3-0.8,1.9-1.1c0.7-0.3,1.3-0.6,1.9-0.8c0.6-0.2,1.2-0.4,1.8-0.6C20,5.7,20.5,5.6,21,5.4
		c0.5-0.1,1-0.1,1.4-0.2c0.8-0.1,1.7-0.1,2.1-0.1s0.9,0,0.9,0v0.1c0,0-0.4,0-0.8,0.1s-1.2,0.1-2,0.2c-0.4,0.1-0.9,0.2-1.4,0.3
		s-1,0.3-1.5,0.4c-0.5,0.2-1.1,0.4-1.7,0.7c-0.6,0.2-1.2,0.6-1.8,0.9c-0.6,0.4-1.2,0.7-1.8,1.2s-1.2,0.9-1.8,1.5
		c-1.2,1-2.2,2.3-3.2,3.8c-1,1.4-1.7,3.1-2.3,4.8c-0.5,1.7-0.8,3.5-0.9,5.4c0,1.8,0.2,3.7,0.7,5.4c0.5,1.7,1.3,3.4,2.2,4.9
		c1,1.4,2,2.8,3.2,3.8c0.6,0.6,1.2,1,1.8,1.5c0.6,0.4,1.2,0.8,1.8,1.2c0.6,0.3,1.2,0.6,1.8,0.9c0.6,0.2,1.2,0.5,1.7,0.6
		c0.6,0.1,1.1,0.3,1.5,0.4c0.5,0.1,0.9,0.2,1.3,0.2c0.8,0.2,1.5,0.1,1.9,0.2C25,43.5,25.2,43.5,25.1,43.7L25.1,43.7z"/>
</g>
<g class="st0">
	<path class="arc2" d="M28.5,41.8c0,0-0.2,0-0.7,0.1c-0.4,0-1.1,0.2-1.9,0.2c-0.4,0-0.9,0-1.4,0s-1-0.1-1.6-0.1c-0.6-0.1-1.2-0.2-1.8-0.3
		c-0.6-0.1-1.3-0.3-2-0.5s-1.4-0.5-2.1-0.8c-0.7-0.4-1.4-0.7-2.1-1.1c-1.4-0.8-2.7-1.9-4-3.2c-1.2-1.3-2.3-2.8-3.2-4.5
		c-0.8-1.7-1.4-3.5-1.8-5.4c-0.3-1.8-0.4-3.8-0.2-5.7c0.2-1.9,0.7-3.7,1.4-5.3c0.7-1.6,1.6-3.2,2.6-4.4c0.5-0.7,1.1-1.2,1.6-1.8
		c0.6-0.5,1.1-1,1.7-1.5c0.6-0.4,1.1-0.8,1.7-1.2c0.6-0.3,1.1-0.6,1.6-0.9c0.5-0.2,1-0.5,1.5-0.7c0.5-0.2,0.9-0.3,1.3-0.4
		C19.9,4,20.5,4,21,3.9c0.4-0.1,0.7-0.1,0.7-0.1l0,0c0,0-0.2,0.1-0.7,0.2c-0.4,0.1-1.1,0.2-1.8,0.5c-0.4,0.1-0.8,0.3-1.3,0.5
		c-0.4,0.2-0.9,0.4-1.4,0.7s-1,0.6-1.6,0.9c-0.5,0.3-1.1,0.8-1.6,1.2c-0.5,0.5-1.1,0.9-1.6,1.5c-0.5,0.6-1.1,1.1-1.5,1.8
		c-1,1.2-1.8,2.7-2.6,4.3c-0.7,1.6-1.1,3.4-1.4,5.2C6,22.3,6,24.2,6.2,26c0.4,1.8,0.9,3.6,1.7,5.3c0.9,1.6,1.9,3.1,3.1,4.4
		s2.5,2.4,3.9,3.2c0.7,0.5,1.4,0.8,2,1.1c0.7,0.3,1.4,0.6,2,0.8c0.7,0.2,1.3,0.4,1.9,0.5s1.2,0.2,1.8,0.3c0.6,0,1.1,0.1,1.6,0.1
		s0.9,0,1.4,0c0.8,0,1.5-0.1,1.9-0.2C28.2,41.8,28.5,41.7,28.5,41.8L28.5,41.8z"/>
</g>
<g class="st0">
	<path class="arc3" d="M21.8,45c0,0-0.2-0.1-0.7-0.1c-0.4-0.1-1.1-0.2-1.9-0.5c-0.4-0.1-0.8-0.3-1.3-0.4c-0.5-0.2-0.9-0.4-1.5-0.7
		c-0.5-0.2-1-0.6-1.6-0.9s-1.1-0.8-1.7-1.2c-0.5-0.5-1.1-0.9-1.7-1.5c-0.5-0.6-1.1-1.1-1.6-1.8c-1.1-1.2-1.9-2.8-2.6-4.4
		c-0.7-1.6-1.2-3.4-1.4-5.3c-0.2-1.9-0.1-3.8,0.1-5.7c0.4-1.9,0.9-3.7,1.8-5.4c0.9-1.7,1.9-3.2,3.1-4.5s2.6-2.4,4-3.2
		c0.7-0.5,1.4-0.8,2.1-1.1C17.5,8,18.2,7.7,19,7.5c0.7-0.2,1.3-0.4,2-0.5c0.6-0.1,1.2-0.2,1.8-0.3c0.6,0,1.1-0.1,1.6-0.1
		s1,0,1.4,0.1c0.8,0,1.5,0.2,1.9,0.2C28,7,28.4,7,28.4,7l0,0c0,0-0.2,0-0.7-0.1c-0.4,0-1.1-0.2-1.9-0.1c-0.4,0-0.9,0-1.4,0
		s-1,0.1-1.6,0.1C22.1,7,21.5,7.1,21,7.2c-0.6,0.1-1.3,0.4-1.9,0.5c-0.7,0.3-1.3,0.5-2,0.8c-0.7,0.4-1.4,0.7-2,1.1
		c-1.4,0.8-2.7,1.9-3.9,3.2s-2.2,2.8-3.1,4.4c-0.8,1.6-1.4,3.4-1.8,5.2C6,24.1,5.9,26,6.1,27.8s0.7,3.6,1.4,5.2
		c0.7,1.6,1.5,3.1,2.6,4.3c0.5,0.7,1,1.2,1.5,1.8c0.5,0.5,1.1,1,1.6,1.5c0.6,0.4,1.1,0.8,1.6,1.2c0.6,0.3,1.1,0.7,1.6,0.9
		c0.5,0.2,1,0.5,1.5,0.7s0.9,0.3,1.3,0.4c0.8,0.3,1.4,0.4,1.8,0.5C21.5,44.8,21.9,44.8,21.8,45L21.8,45z"/>
</g>
<text transform="matrix(1 0 0 1 24.2527 31.7401)" class="st1 st2 heavylogo">ARC</text>
<text transform="matrix(1 0 0 1 70.7527 31.7401)" class="st1 st2"> </text>
<text transform="matrix(1 0 0 1 76.2527 31.7401)" class="st1 st2 lightlogo">INFORMATICS</text>
</svg>
