<?xml version="1.0" encoding="utf-8"?>
<!-- Generator: Adobe Illustrator 18.1.1, SVG Export Plug-In . SVG Version: 6.00 Build 0)  -->
<svg version="1.1" id="Layer_1" xmlns="http://www.w3.org/2000/svg" xmlns:xlink="http://www.w3.org/1999/xlink" x="0px" y="0px"
	 viewBox="0 0 275 150" enable-background="new 0 0 275 150" xml:space="preserve">
<g>
	<path class="arc1" d="M50.6,95.7c0,0-0.2,0-0.7,0c-0.4,0-1.1,0-1.9-0.1c-0.4-0.1-0.9-0.1-1.4-0.2c-0.5-0.1-1-0.2-1.6-0.4
		c-0.6-0.1-1.1-0.4-1.7-0.6c-0.6-0.2-1.2-0.5-1.9-0.8c-0.6-0.4-1.3-0.7-1.9-1.1c-0.6-0.5-1.3-0.9-1.9-1.5c-1.3-1-2.4-2.4-3.4-3.9
		c-1-1.5-1.8-3.2-2.4-5c-0.6-1.8-0.8-3.7-0.9-5.6c0-1.9,0.2-3.9,0.8-5.7c0.6-1.8,1.3-3.5,2.3-5.1c1-1.5,2.1-2.9,3.4-3.9
		c0.6-0.6,1.3-1,1.9-1.5c0.6-0.4,1.3-0.8,1.9-1.1c0.7-0.3,1.3-0.6,1.9-0.8c0.6-0.2,1.2-0.4,1.8-0.6c0.6-0.1,1.1-0.2,1.6-0.4
		c0.5-0.1,1-0.1,1.4-0.2c0.8-0.1,1.7-0.1,2.1-0.1c0.4,0,0.9,0,0.9,0v0.1c0,0-0.4,0-0.8,0.1c-0.4,0.1-1.2,0.1-2,0.2
		c-0.4,0.1-0.9,0.2-1.4,0.3c-0.5,0.1-1,0.3-1.5,0.4c-0.5,0.2-1.1,0.4-1.7,0.7c-0.6,0.2-1.2,0.6-1.8,0.9c-0.6,0.4-1.2,0.7-1.8,1.2
		c-0.6,0.5-1.2,0.9-1.8,1.5c-1.2,1-2.2,2.3-3.2,3.8c-1,1.4-1.7,3.1-2.3,4.8c-0.5,1.7-0.8,3.5-0.9,5.4c0,1.8,0.2,3.7,0.7,5.4
		c0.5,1.7,1.3,3.4,2.2,4.9c1,1.4,2,2.8,3.2,3.8c0.6,0.6,1.2,1,1.8,1.5c0.6,0.4,1.2,0.8,1.8,1.2c0.6,0.3,1.2,0.6,1.8,0.9
		c0.6,0.2,1.2,0.5,1.7,0.6c0.6,0.1,1.1,0.3,1.5,0.4c0.5,0.1,0.9,0.2,1.3,0.2c0.8,0.2,1.5,0.1,1.9,0.2C50.4,95.6,50.7,95.6,50.6,95.7
		L50.6,95.7z"/>
</g>
<g opacity="0.8">
	<path class="arc2"  d="M53.9,93.8c0,0-0.2,0-0.7,0.1c-0.4,0-1.1,0.2-1.9,0.2c-0.4,0-0.9,0-1.4,0c-0.5,0-1-0.1-1.6-0.1c-0.6-0.1-1.2-0.2-1.8-0.3
		c-0.6-0.1-1.3-0.3-2-0.5c-0.7-0.2-1.4-0.5-2.1-0.8c-0.7-0.4-1.4-0.7-2.1-1.1c-1.4-0.8-2.7-1.9-4-3.2c-1.2-1.3-2.3-2.8-3.2-4.5
		c-0.8-1.7-1.4-3.5-1.8-5.4c-0.3-1.8-0.4-3.8-0.2-5.7c0.2-1.9,0.7-3.7,1.4-5.3c0.7-1.6,1.6-3.2,2.6-4.4c0.5-0.7,1.1-1.2,1.6-1.8
		c0.6-0.5,1.1-1,1.7-1.5c0.6-0.4,1.1-0.8,1.7-1.2c0.6-0.3,1.1-0.6,1.6-0.9c0.5-0.2,1-0.5,1.5-0.7c0.5-0.2,0.9-0.3,1.3-0.4
		c0.8-0.3,1.4-0.3,1.9-0.4c0.4-0.1,0.7-0.1,0.7-0.1l0,0c0,0-0.2,0.1-0.7,0.2c-0.4,0.1-1.1,0.2-1.8,0.5c-0.4,0.1-0.8,0.3-1.3,0.5
		c-0.4,0.2-0.9,0.4-1.4,0.7c-0.5,0.3-1,0.6-1.6,0.9c-0.5,0.3-1.1,0.8-1.6,1.2c-0.5,0.5-1.1,0.9-1.6,1.5c-0.5,0.6-1.1,1.1-1.5,1.8
		c-1,1.2-1.8,2.7-2.6,4.3c-0.7,1.6-1.1,3.4-1.4,5.2c-0.2,1.8-0.2,3.7,0.1,5.5c0.4,1.8,0.9,3.6,1.7,5.3c0.9,1.6,1.9,3.1,3.1,4.4
		c1.2,1.3,2.5,2.4,3.9,3.2c0.7,0.5,1.4,0.8,2,1.1c0.7,0.3,1.4,0.6,2,0.8c0.7,0.2,1.3,0.4,1.9,0.5c0.6,0.1,1.2,0.2,1.8,0.3
		c0.6,0,1.1,0.1,1.6,0.1c0.5,0,0.9,0,1.4,0c0.8,0,1.5-0.1,1.9-0.2C53.7,93.8,53.9,93.7,53.9,93.8L53.9,93.8z"/>
</g>
<g opacity="0.8">
	<path  class="arc3" d="M47.2,97c0,0-0.2-0.1-0.7-0.1c-0.4-0.1-1.1-0.2-1.9-0.5c-0.4-0.1-0.8-0.3-1.3-0.4c-0.5-0.2-0.9-0.4-1.5-0.7
		c-0.5-0.2-1-0.6-1.6-0.9c-0.6-0.3-1.1-0.8-1.7-1.2c-0.5-0.5-1.1-0.9-1.7-1.5c-0.5-0.6-1.1-1.1-1.6-1.8c-1.1-1.2-1.9-2.8-2.6-4.4
		c-0.7-1.6-1.2-3.4-1.4-5.3c-0.2-1.9-0.1-3.8,0.1-5.7c0.4-1.9,0.9-3.7,1.8-5.4c0.9-1.7,1.9-3.2,3.1-4.5c1.2-1.3,2.6-2.4,4-3.2
		c0.7-0.5,1.4-0.8,2.1-1.1c0.7-0.3,1.4-0.6,2.1-0.8c0.7-0.2,1.3-0.4,2-0.5c0.6-0.1,1.2-0.2,1.8-0.3c0.6,0,1.1-0.1,1.6-0.1
		c0.5,0,1,0,1.4,0.1c0.8,0,1.5,0.2,1.9,0.2c0.4,0.1,0.7,0.1,0.7,0.1l0,0c0,0-0.2,0-0.7-0.1c-0.4,0-1.1-0.2-1.9-0.1
		c-0.4,0-0.9,0-1.4,0c-0.5,0-1,0.1-1.6,0.1c-0.6,0.1-1.2,0.2-1.8,0.3c-0.6,0.1-1.3,0.4-1.9,0.5c-0.7,0.3-1.3,0.5-2,0.8
		c-0.7,0.4-1.4,0.7-2,1.1c-1.4,0.8-2.7,1.9-3.9,3.2c-1.2,1.3-2.2,2.8-3.1,4.4c-0.8,1.6-1.4,3.4-1.8,5.2c-0.3,1.8-0.4,3.7-0.2,5.5
		c0.2,1.8,0.7,3.6,1.4,5.2c0.7,1.6,1.5,3.1,2.6,4.3c0.5,0.7,1,1.2,1.5,1.8c0.5,0.5,1.1,1,1.6,1.5c0.6,0.4,1.1,0.8,1.6,1.2
		c0.6,0.3,1.1,0.7,1.6,0.9c0.5,0.2,1,0.5,1.5,0.7c0.5,0.2,0.9,0.3,1.3,0.4c0.8,0.3,1.4,0.4,1.8,0.5C47,96.9,47.3,96.9,47.2,97
		L47.2,97z"/>
</g>
<text transform="matrix(1 0 0 1 49.6694 83.7901)"><tspan x="0" y="0" font-family="'Raleway-SemiBold'" font-size="23">ARC</tspan><tspan x="46.5" y="0" font-family="'Raleway-Bold'" font-size="23"> </tspan><tspan x="52" y="0" font-family="'Raleway-Thin'" font-size="23">INFORMATICS</tspan></text>
</svg>
