<?xml version="1.0" encoding="utf-8"?>
<!-- Generator: Adobe Illustrator 19.2.0, SVG Export Plug-In . SVG Version: 6.00 Build 0)  -->
<svg version="1.1" id="Layer_1" xmlns="http://www.w3.org/2000/svg" xmlns:xlink="http://www.w3.org/1999/xlink" x="0px" y="0px"
	 viewBox="0 0 232.8 41.2" style="enable-background:new 0 0 232.8 41.2;" xml:space="preserve">
<style type="text/css">
	.st0{opacity:0.8;}
	.st1{font-family:'ArialMT';}
	.st2{font-size:23px;}
</style>
<g>
	<path d="M20.4,39.9c0,0-0.2,0-0.7,0c-0.4,0-1.1,0-1.9-0.1c-0.4-0.1-0.9-0.1-1.4-0.2c-0.5-0.1-1-0.2-1.6-0.4
		c-0.6-0.1-1.1-0.4-1.7-0.6c-0.6-0.2-1.2-0.5-1.9-0.8c-0.6-0.4-1.3-0.7-1.9-1.1c-0.6-0.5-1.3-0.9-1.9-1.5c-1.3-1-2.4-2.4-3.4-3.9
		s-1.8-3.2-2.4-5s-0.8-3.7-0.9-5.6c0-1.9,0.2-3.9,0.8-5.7c0.6-1.8,1.3-3.5,2.3-5.1C4.8,8.4,5.9,7,7.2,6c0.6-0.6,1.3-1,1.9-1.5
		c0.6-0.4,1.3-0.8,1.9-1.1c0.7-0.3,1.3-0.6,1.9-0.8c0.6-0.2,1.2-0.4,1.8-0.6c0.6-0.1,1.1-0.2,1.6-0.4c0.5-0.1,1-0.1,1.4-0.2
		c0.8-0.1,1.7-0.1,2.1-0.1c0.4,0,0.9,0,0.9,0v0.1c0,0-0.4,0-0.8,0.1c-0.4,0.1-1.2,0.1-2,0.2C17.5,1.8,17,1.9,16.5,2s-1,0.3-1.5,0.4
		c-0.5,0.2-1.1,0.4-1.7,0.7c-0.6,0.2-1.2,0.6-1.8,0.9c-0.6,0.4-1.2,0.7-1.8,1.2S8.5,6.1,7.9,6.7c-1.2,1-2.2,2.3-3.2,3.8
		c-1,1.4-1.7,3.1-2.3,4.8c-0.5,1.7-0.8,3.5-0.9,5.4c0,1.8,0.2,3.7,0.7,5.4c0.5,1.7,1.3,3.4,2.2,4.9c1,1.4,2,2.8,3.2,3.8
		c0.6,0.6,1.2,1,1.8,1.5c0.6,0.4,1.2,0.8,1.8,1.2c0.6,0.3,1.2,0.6,1.8,0.9c0.6,0.2,1.2,0.5,1.7,0.6c0.6,0.1,1.1,0.3,1.5,0.4
		c0.5,0.1,0.9,0.2,1.3,0.2c0.8,0.2,1.5,0.1,1.9,0.2C20.2,39.8,20.5,39.8,20.4,39.9L20.4,39.9z"/>
</g>
<g class="st0">
	<path d="M23.7,38c0,0-0.2,0-0.7,0.1c-0.4,0-1.1,0.2-1.9,0.2c-0.4,0-0.9,0-1.4,0s-1-0.1-1.6-0.1c-0.6-0.1-1.2-0.2-1.8-0.3
		c-0.6-0.1-1.3-0.3-2-0.5s-1.4-0.5-2.1-0.8c-0.7-0.4-1.4-0.7-2.1-1.1c-1.4-0.8-2.7-1.9-4-3.2c-1.2-1.3-2.3-2.8-3.2-4.5
		c-0.8-1.7-1.4-3.5-1.8-5.4c-0.3-1.8-0.4-3.8-0.2-5.7c0.2-1.9,0.7-3.7,1.4-5.3C3,9.8,3.9,8.2,4.9,7C5.4,6.3,6,5.8,6.5,5.2
		c0.6-0.5,1.1-1,1.7-1.5c0.6-0.4,1.1-0.8,1.7-1.2c0.6-0.3,1.1-0.6,1.6-0.9c0.5-0.2,1-0.5,1.5-0.7s0.9-0.3,1.3-0.4
		c0.8-0.3,1.4-0.3,1.9-0.4C16.6,0,16.9,0,16.9,0l0,0c0,0-0.2,0.1-0.7,0.2c-0.4,0.1-1.1,0.2-1.8,0.5C14,0.8,13.6,1,13.1,1.2
		c-0.4,0.2-0.9,0.4-1.4,0.7s-1,0.6-1.6,0.9C9.6,3.1,9,3.6,8.5,4C8,4.5,7.4,4.9,6.9,5.5S5.8,6.6,5.4,7.3c-1,1.2-1.8,2.7-2.6,4.3
		c-0.7,1.6-1.1,3.4-1.4,5.2c-0.2,1.8-0.2,3.7,0.1,5.5c0.4,1.8,0.9,3.6,1.7,5.3c0.9,1.6,1.9,3.1,3.1,4.4c1.2,1.3,2.5,2.4,3.9,3.2
		c0.7,0.5,1.4,0.8,2,1.1c0.7,0.3,1.4,0.6,2,0.8c0.7,0.2,1.3,0.4,1.9,0.5c0.6,0.1,1.2,0.2,1.8,0.3c0.6,0,1.1,0.1,1.6,0.1s0.9,0,1.4,0
		c0.8,0,1.5-0.1,1.9-0.2C23.5,38,23.7,37.9,23.7,38L23.7,38z"/>
</g>
<g class="st0">
	<path d="M17,41.2c0,0-0.2-0.1-0.7-0.1c-0.4-0.1-1.1-0.2-1.9-0.5c-0.4-0.1-0.8-0.3-1.3-0.4c-0.5-0.2-0.9-0.4-1.5-0.7
		c-0.5-0.2-1-0.6-1.6-0.9s-1.1-0.8-1.7-1.2c-0.5-0.5-1.1-0.9-1.7-1.5c-0.5-0.6-1.1-1.1-1.6-1.8c-1.1-1.2-1.9-2.8-2.6-4.4
		c-0.7-1.6-1.2-3.4-1.4-5.3c-0.2-1.9-0.1-3.8,0.1-5.7C1.5,16.8,2,15,2.9,13.3c0.9-1.7,1.9-3.2,3.1-4.5c1.2-1.3,2.6-2.4,4-3.2
		c0.7-0.5,1.4-0.8,2.1-1.1c0.7-0.3,1.4-0.6,2.1-0.8c0.7-0.2,1.3-0.4,2-0.5C16.8,3.1,17.4,3,18,2.9c0.6,0,1.1-0.1,1.6-0.1
		s1,0,1.4,0.1c0.8,0,1.5,0.2,1.9,0.2c0.4,0.1,0.7,0.1,0.7,0.1l0,0c0,0-0.2,0-0.7-0.1c-0.4,0-1.1-0.2-1.9-0.1c-0.4,0-0.9,0-1.4,0
		s-1,0.1-1.6,0.1c-0.6,0.1-1.2,0.2-1.8,0.3c-0.6,0.1-1.3,0.4-1.9,0.5c-0.7,0.3-1.3,0.5-2,0.8c-0.7,0.4-1.4,0.7-2,1.1
		C8.9,6.6,7.6,7.7,6.4,9c-1.2,1.3-2.2,2.8-3.1,4.4c-0.8,1.6-1.4,3.4-1.8,5.2c-0.3,1.8-0.4,3.7-0.2,5.5c0.2,1.8,0.7,3.6,1.4,5.2
		s1.5,3.1,2.6,4.3c0.5,0.7,1,1.2,1.5,1.8c0.5,0.5,1.1,1,1.6,1.5c0.6,0.4,1.1,0.8,1.6,1.2c0.6,0.3,1.1,0.7,1.6,0.9
		c0.5,0.2,1,0.5,1.5,0.7s0.9,0.3,1.3,0.4c0.8,0.3,1.4,0.4,1.8,0.5C16.8,41.1,17.1,41.1,17,41.2L17,41.2z"/>
</g>
<text transform="matrix(1 0 0 1 19.5027 27.9901)" class="st1 st2">ARC</text>
<text transform="matrix(1 0 0 1 66.0027 27.9901)" class="st1 st2"> </text>
<text transform="matrix(1 0 0 1 71.5027 27.9901)" class="st1 st2">INFORMATICS</text>
</svg>
