<svg id="Layer_1" data-name="Layer 1" xmlns="http://www.w3.org/2000/svg" viewBox="0 0 915.76 333.06"><defs><style>.cls-1{fill:none;stroke:#fff;stroke-miterlimit:10;stroke-width:11px;} path,polygon{fill:#fff;}</style></defs><title>convert-amp</title><path d="M905.19,416v10.66H789V416H905.19Zm0-312.05V93.62H789v10.32H905.19Zm48,281.42A25.59,25.59,0,0,1,927.83,411H766.31a25.67,25.67,0,0,1-5.66-50.62V159.56c-11.32-2.33-19.65-12.66-19.65-25a25.59,25.59,0,0,1,25.31-25.64H927.83a25.59,25.59,0,0,1,25.31,25.64,25.18,25.18,0,0,1-18,24.31V361.05A25.18,25.18,0,0,1,953.14,385.36ZM889.53,240.49H845.24l24.64-77.6L804.61,263.47h41.63l-30.31,93.58Z" transform="translate(-37.38 -93.6)"/><path d="M83.29,188.43h81.54V345.17H83.29V188.43M202,260.31h91.2V273H202V260.31m0-45.9h91.2v12.68H202V214.4m0,91.81h91.2V318.9H202V306.21M300.73,93.6H37.38v302h302V93.6H300.73ZM307.07,106H326.7v23.86H307.07V106Zm-38.35,0H288v23.86H268.71V106Zm-219,0H249.69v23.86H49.76V106ZM333,389.26H43.42V142.53H333V389.26Z" transform="translate(-37.38 -93.6)"/><line class="cls-1" x1="423.91" y1="151" x2="521.57" y2="151"/><polygon points="510.18 189.94 577.62 151 510.18 112.06 510.18 189.94"/></svg>