<?xml version="1.0" encoding="utf-8"?>
<!-- Generator: Adobe Illustrator 20.1.0, SVG Export Plug-In . SVG Version: 6.00 Build 0)  -->
<svg version="1.1" id="Layer_1" xmlns="http://www.w3.org/2000/svg" xmlns:xlink="http://www.w3.org/1999/xlink" x="0px" y="0px"
	 viewBox="0 0 512 512" style="enable-background:new 0 0 512 512;" xml:space="preserve">
<style type="text/css">
	.st0{fill:none;}
	.st1{fill:#000;}
	.st2{fill:#444;}
</style>
<g>
	<rect y="144" class="st0" width="512" height="224"/>
	<g>
		<path class="st0" d="M121.9,352.6c-1.6,0-3.2,1.3-3.2,3.2c0,1.6,1.3,3.2,3.2,3.2c1.9,0,3.2-1.6,3.2-3.2S123.8,352.6,121.9,352.6z"
			/>
		<path class="st0" d="M233.9,159c1,0,1.6-0.6,1.6-1.6c0-1-0.6-1.6-1.6-1.6s-1.6,0.6-1.6,1.6C232.3,158.4,233,159,233.9,159z"/>
		<g>
			<g>
				<g>
					<path class="st1" d="M52.2,253.4H9c-4.5,0-8,3.5-8,8v91.8c0,4.5,3.5,8,8,8h43.2c4.5,0,8-3.5,8-8v-92.2
						C59.8,257,56.3,253.4,52.2,253.4z M25.6,262.1h9.9c0.6,0,1.3,0.6,1.3,1.3c0,0.6-0.6,1.3-1.3,1.3h-9.9c-0.6,0-1.3-0.6-1.3-1.3
						C24.3,262.4,25,262.1,25.6,262.1z M30.4,358.1c-2.2,0-4.2-1.9-4.2-4.2c0-2.2,1.9-4.2,4.2-4.2s4.2,1.9,4.2,4.2
						C34.6,356.5,32.6,358.1,30.4,358.1z"/>
					<rect x="4.8" y="267.5" class="st2" width="51.2" height="79.7"/>
				</g>
				<g>
					<g>
						<path class="st1" d="M511.7,351.4c0-1-1-1.9-1.9-1.9h-3.8h-1.3H299.2h-1.3h-3.8c-1,0-1.9,1-1.9,1.9v3.8l0,0l0,0
							c0,3.2,2.6,5.8,5.8,5.8h208c3.2,0,5.8-2.6,5.8-5.8l0,0l0,0L511.7,351.4z M419.5,355.2h-34.9c-1,0-1.6-0.6-1.6-1.6
							c0-1,0.6-1.6,1.6-1.6h34.9c1,0,1.6,0.6,1.6,1.6C421.1,354.6,420.2,355.2,419.5,355.2z"/>
					</g>
					<path class="st0" d="M401.9,226.9c1,0,1.6-0.6,1.6-1.6s-0.6-1.6-1.6-1.6c-0.6,0-1.6,0.6-1.6,1.6S401,226.9,401.9,226.9z"/>
					<g>
						<path class="st1" d="M488.6,219.8H360.3V159c0-4.5-3.5-8-8-8H115.5c-4.5,0-8,3.5-8,8v55.7H73.6c-4.5,0-8,3.5-8,8v130.6
							c0,4.5,3.5,8,8,8h97c4.5,0,8-3.5,8-8v-21.1h129l0,0l0,0v5.4c0,4.5,3.5,8,8,8h173.1c4.5,0,8-3.5,8-8V227.8
							C496.6,223.4,493.1,219.8,488.6,219.8z M401.9,223.7c1,0,1.6,0.6,1.6,1.6s-0.6,1.6-1.6,1.6c-1,0-1.6-0.6-1.6-1.6
							S401.3,223.7,401.9,223.7z M233.9,155.8c1,0,1.6,0.6,1.6,1.6c0,1-0.6,1.6-1.6,1.6s-1.6-0.6-1.6-1.6
							C232.3,156.5,233,155.8,233.9,155.8z M121.9,359c-1.9,0-3.2-1.6-3.2-3.2c0-1.9,1.6-3.2,3.2-3.2c1.9,0,3.2,1.6,3.2,3.2
							S123.8,359,121.9,359z M171.5,350.4L171.5,350.4H72.6V221.8h98.9V350.4z M487,229.8v105.9h-0.3H317.1V229.8H487z"/>
						<path class="st2" d="M348.2,162.9H119.4v51.5h50.9c4.5,0,8,3.5,8,8v0.3v97.9h129v-92.8c0-4.5,3.5-8,8-8h0.3h32.6
							C348.2,219.8,348.2,162.9,348.2,162.9z"/>
					</g>
				</g>
			</g>
			<path class="st1" d="M262.7,350.7c-5.8-5.8-5.1-8.3-5.1-12.5c0-2.2,0-7.7,0-7.7s-47.7,0-47.4,0c0,0,0,5.4,0,7.7
				c0,4.2,1,6.7-5.1,12.5c-1.9,1.9-10.2,7.4-10.2,7.4v1.9c0,0,0,1.3,1,1.3c0.6,0,75.2,0,75.8,0c1.3,0,1-1.3,1-1.3v-1.9
				C273,358.1,264.3,352.3,262.7,350.7z"/>
		</g>
	</g>
</g>
</svg>
