<?xml version="1.0" encoding="iso-8859-1"?>
<!DOCTYPE svg PUBLIC "-//W3C//DTD SVG 1.1 Basic//EN" "http://www.w3.org/Graphics/SVG/1.1/DTD/svg11-basic.dtd">
<svg version="1.1" baseProfile="basic"
   xmlns="http://www.w3.org/2000/svg" xmlns:xlink="http://www.w3.org/1999/xlink" x="0px" y="0px" width="512px" height="512px"
   viewBox="0 0 512 512" xml:space="preserve">
  <path transform="matrix(0.512,0,0,0.512,0,34)" stroke="none" style="fill:#182848" d="M 486 620 C 490 596 490 572 486 549 L 564 517 L 530 433 L 451 465 C 438 446 421 429 401 416 L 434 338 L 350 303 L 317 381 C 294 377 270 377 246 381 L 214 303 L 130 338 L 162 416 C 143 429 126 446 112 466 L 34 434 L 0 517 L 78 549 C 74 573 74 597 78 620 L 0 652 L 35 736 L 113 704 C 126 723 143 740 163 754 L 130 832 L 215 866 L 247 788 C 270 792 294 792 318 788 L 350 866 L 434 831 L 402 753 C 421 740 438 723 452 703 L 530 736 L 565 652 L 486 620 z M 369 621 C 354 657 319 679 282 679 C 270 679 258 677 246 672 C 198 652 175 597 195 549 C 210 512 245 490 282 490 C 294 490 306 493 318 498 C 366 517 389 573 369 621 z M 920 312 C 924 289 923 265 918 242 L 996 207 L 959 125 L 881 159 C 867 140 850 124 830 111 L 860 32 L 775 0 L 745 78 C 721 75 697 76 674 80 L 639 3 L 556 40 L 591 117 C 572 132 555 149 542 169 L 463 139 L 431 223 L 510 253 C 507 277 507 301 512 324 L 435 358 L 472 441 L 549 407 C 563 426 581 442 601 455 L 571 534 L 655 566 L 686 487 C 709 491 733 490 756 485 L 791 562 L 874 525 L 839 448 C 858 434 875 417 888 397 L 967 427 L 1000 342 L 920 312 z M 804 316 C 789 353 755 376 718 377 C 706 377 693 375 682 371 C 633 352 608 298 627 249 C 641 213 676 190 713 189 C 725 188 737 190 749 195 C 798 213 822 268 804 316 z"/>
</svg>