<?xml version="1.0" encoding="iso-8859-1"?>
<!DOCTYPE svg PUBLIC "-//W3C//DTD SVG 1.1 Basic//EN" "http://www.w3.org/Graphics/SVG/1.1/DTD/svg11-basic.dtd">
<svg version="1.1" baseProfile="basic"
   xmlns="http://www.w3.org/2000/svg" xmlns:xlink="http://www.w3.org/1999/xlink" x="0px" y="0px" width="512px" height="512px"
   viewBox="0 0 512 512" xml:space="preserve">
  <path transform="matrix(0.512,0,0,0.512,0,86)" stroke="none" style="fill:#000000" d="M 449 435 C 449 435 441 432 441 426 L 441 426 L 441 344 C 458 330 468 278 468 278 C 468 278 505 255 505 219 C 505 182 496 179 496 179 C 496 179 492 155 492 102 C 492 65 467 31 435 31 C 435 31 425 0 342 0 C 259 0 215 73 214 102 C 213 155 211 179 211 179 C 211 179 202 183 202 219 C 202 255 239 278 239 278 C 239 278 248 330 265 344 L 265 426 L 265 426 C 265 432 258 435 258 435 C 39 494 0 551 0 585 C 0 598 0 594 0 654 C 0 657 0 659 0 662 L 302 662 L 405 662 L 707 662 C 707 659 707 657 707 654 C 707 594 707 598 707 585 C 707 551 668 494 449 435 z M 875 559 C 875 568 875 565 875 608 C 875 610 875 612 874 613 L 726 613 L 726 585 C 726 536 669 491 558 450 C 559 449 561 448 561 446 L 561 446 L 561 388 C 548 377 542 341 542 341 C 542 341 515 324 515 299 C 515 273 521 270 521 270 C 521 270 523 253 524 216 C 525 195 556 143 615 143 C 674 143 681 165 681 165 C 704 165 722 189 722 216 C 722 253 725 270 725 270 C 725 270 731 273 731 299 C 731 324 705 341 705 341 C 705 341 698 377 686 388 L 686 446 L 686 446 C 686 450 691 452 691 452 C 847 494 875 535 875 559 z M 1000 533 C 1000 539 1000 537 1000 567 C 1000 568 999 569 999 571 L 893 571 L 893 559 C 893 522 855 489 777 460 C 778 460 778 460 779 459 C 779 459 783 458 783 455 L 783 455 L 783 415 C 775 408 770 383 770 383 C 770 383 752 371 752 354 C 752 336 756 334 756 334 C 756 334 757 322 758 297 C 758 282 780 246 821 246 C 861 246 866 261 866 261 C 882 261 894 278 894 297 C 894 322 896 334 896 334 C 896 334 900 336 900 354 C 900 371 882 383 882 383 C 882 383 877 408 869 415 L 869 455 L 869 455 C 869 458 873 459 873 459 C 980 488 1000 516 1000 533 z"/>
</svg>