<?xml version="1.0" encoding="iso-8859-1"?>
<!DOCTYPE svg PUBLIC "-//W3C//DTD SVG 1.1 Basic//EN" "http://www.w3.org/Graphics/SVG/1.1/DTD/svg11-basic.dtd">
<svg version="1.1" baseProfile="basic"
   xmlns="http://www.w3.org/2000/svg" xmlns:xlink="http://www.w3.org/1999/xlink" x="0px" y="0px" width="512px" height="512px"
   viewBox="0 0 512 512" xml:space="preserve">
  <path transform="matrix(0.512,0,0,0.512,0,63)" stroke="none" style="fill:#000000" d="M 909 0 L 191 0 C 142 0 101 40 101 90 L 101 106 L 90 106 C 40 106 0 146 0 196 L 0 661 C 0 710 40 751 90 751 L 808 751 C 857 751 898 710 898 661 L 898 644 L 909 644 C 959 644 999 604 999 554 L 999 90 C 1000 40 959 0 909 0 z M 859 661 C 859 689 836 712 808 712 L 90 712 C 61 712 38 689 38 661 L 38 391 L 859 391 L 859 661 z M 859 262 L 38 262 L 38 196 C 38 168 61 145 90 145 L 808 145 C 836 145 859 168 859 196 L 859 262 L 859 262 z M 961 554 C 961 583 938 606 909 606 L 898 606 L 898 284 L 961 284 L 961 554 z M 961 156 L 888 156 C 873 126 843 106 808 106 L 140 106 L 140 90 C 140 61 163 38 191 38 L 909 38 C 938 38 961 61 961 90 L 961 156 L 961 156 z"/>
</svg>