<?xml version="1.0" encoding="iso-8859-1"?>
<!DOCTYPE svg PUBLIC "-//W3C//DTD SVG 1.1 Basic//EN" "http://www.w3.org/Graphics/SVG/1.1/DTD/svg11-basic.dtd">
<svg version="1.1" baseProfile="basic"
   xmlns="http://www.w3.org/2000/svg" xmlns:xlink="http://www.w3.org/1999/xlink" x="0px" y="0px" width="512px" height="512px"
   viewBox="0 0 512 512" xml:space="preserve">
  <path transform="matrix(0.512,0,0,0.512,0,40)" stroke="none" style="fill:#000000" d="M 228 657 C 271 669 315 643 327 601 C 334 573 325 544 306 525 L 402 376 C 428 381 453 373 471 356 L 589 414 C 589 415 589 415 589 415 C 577 457 603 501 646 512 C 689 523 733 498 744 456 C 750 435 747 414 737 396 L 859 295 C 866 299 874 303 883 306 C 926 317 970 292 982 250 C 993 207 968 164 925 152 C 882 141 838 166 826 208 C 821 228 824 248 832 265 L 708 368 C 702 364 695 361 688 359 C 659 351 629 360 609 380 L 493 323 C 493 322 494 321 494 319 C 506 277 480 233 438 222 C 395 211 350 236 339 278 C 330 309 342 340 365 359 L 271 504 C 271 504 270 504 270 504 C 227 492 183 518 171 560 C 160 602 185 646 228 657 z M 972 734 L 972 734 L 106 734 L 106 0 L 0 0 L 0 39 L 66 39 L 66 198 L 0 198 L 0 238 L 66 238 L 66 397 L 0 397 L 0 436 L 66 436 L 66 595 L 0 595 L 0 635 L 66 635 L 66 774 L 154 774 L 154 840 L 194 840 L 194 774 L 234 774 L 234 774 L 355 774 L 355 840 L 395 840 L 395 774 L 556 774 L 556 840 L 597 840 L 597 774 L 758 774 L 758 840 L 798 840 L 798 774 L 959 774 L 959 840 L 1000 840 L 1000 734 z"/>
</svg>