<?xml version="1.0" encoding="iso-8859-1"?>
<!DOCTYPE svg PUBLIC "-//W3C//DTD SVG 1.1 Basic//EN" "http://www.w3.org/Graphics/SVG/1.1/DTD/svg11-basic.dtd">
<svg version="1.1" baseProfile="basic"
   xmlns="http://www.w3.org/2000/svg" xmlns:xlink="http://www.w3.org/1999/xlink" x="0px" y="0px" width="512px" height="512px"
   viewBox="0 0 512 512" xml:space="preserve">
  <path transform="matrix(0.512,0,0,0.512,0,1)" stroke="none" style="fill:#182848" d="M 345 697 L 251 791 C 257 813 251 837 234 854 L 120 968 C 94 994 52 994 26 968 C 0 942 0 899 26 873 L 139 760 C 156 742 181 737 203 742 L 296 649 C 310 635 332 635 345 649 C 358 662 358 684 345 697 z M 885 904 C 832 957 744 957 691 904 L 271 484 C 260 486 249 487 237 487 C 110 487 6 383 6 256 C 6 225 12 196 23 169 L 145 291 C 182 327 241 327 277 291 C 314 254 314 195 277 158 L 158 39 C 183 30 209 25 237 25 C 365 25 469 128 469 256 C 469 267 467 279 466 290 L 885 709 C 939 763 939 850 885 904 z M 837 793 C 837 758 809 730 775 730 C 740 730 712 758 712 793 C 712 827 740 856 775 856 C 809 856 837 827 837 793 z M 788 119 C 795 112 806 112 813 119 C 820 126 820 137 813 144 L 592 366 L 633 407 L 854 185 C 862 178 873 178 880 185 C 887 192 887 204 880 211 L 658 432 L 693 467 L 954 206 C 1000 161 1000 89 954 44 C 910 0 837 0 793 44 L 532 305 L 566 340 L 788 119 z"/>
</svg>