<?xml version="1.0" encoding="iso-8859-1"?>
<!DOCTYPE svg PUBLIC "-//W3C//DTD SVG 1.1 Basic//EN" "http://www.w3.org/Graphics/SVG/1.1/DTD/svg11-basic.dtd">
<svg version="1.1" baseProfile="basic"
   xmlns="http://www.w3.org/2000/svg" xmlns:xlink="http://www.w3.org/1999/xlink" x="0px" y="0px" width="512px" height="512px"
   viewBox="0 0 512 512" xml:space="preserve">
  <path transform="matrix(0.512,0,0,0.512,0,0)" stroke="none" style="fill:#000" d="M 872 0 L 851 0 L 745 0 L 745 0 L 724 0 L 0 0 L 0 141 L 0 162 L 0 1000 L 1000 1000 L 1000 162 L 1000 141 L 1000 0 L 872 0 z M 893 41 L 958 41 L 958 120 L 893 120 L 893 41 z M 766 41 L 830 41 L 830 120 L 766 120 L 766 41 z M 41 41 L 703 41 L 703 120 L 41 120 L 41 41 z M 979 979 L 20 979 L 20 162 L 724 162 L 745 162 L 745 162 L 851 162 L 872 162 L 979 162 L 979 979 z M 496 274 C 332 274 200 406 200 570 C 200 734 332 867 496 867 C 660 867 792 734 792 570 C 792 406 660 274 496 274 z M 655 795 C 629 813 600 827 568 836 L 502 655 L 429 837 C 406 831 385 823 365 813 L 240 517 L 226 517 C 231 491 240 465 252 442 L 342 442 L 352 442 L 352 446 L 352 470 L 352 479 L 342 479 L 318 479 C 315 479 310 481 307 485 C 303 491 305 501 307 508 C 315 532 392 716 412 764 L 484 610 C 480 595 453 517 445 499 C 436 482 410 476 404 476 L 395 476 L 395 466 L 395 451 L 395 442 L 404 442 L 613 442 L 623 442 L 623 451 L 623 470 L 623 480 L 585 480 L 567 480 L 566 480 L 566 480 C 559 480 554 481 552 484 C 550 487 551 495 554 504 C 566 534 625 687 643 732 C 658 701 697 594 700 548 C 701 529 693 510 683 491 C 674 471 664 450 664 426 C 664 402 675 385 690 375 C 725 410 751 455 763 506 L 655 795 z"/>
</svg>