<?xml version="1.0" encoding="iso-8859-1"?>
<!DOCTYPE svg PUBLIC "-//W3C//DTD SVG 1.1 Basic//EN" "http://www.w3.org/Graphics/SVG/1.1/DTD/svg11-basic.dtd">
<svg version="1.1" baseProfile="basic"
   xmlns="http://www.w3.org/2000/svg" xmlns:xlink="http://www.w3.org/1999/xlink" x="0px" y="0px" width="512px" height="512px"
   viewBox="0 0 512 512" xml:space="preserve">
  <path transform="matrix(0.512,0,0,0.512,185,0)" stroke="none" style="fill:#000" d="M 272 185 C 273 182 275 180 275 176 L 275 76 C 275 72 273 69 270 66 L 204 4 C 202 1 198 0 195 0 C 193 0 191 0 190 1 C 185 3 181 8 181 13 L 181 81 L 181 107 L 154 134 L 119 134 L 92 107 L 92 81 L 92 13 C 92 7 88 3 83 1 C 82 0 80 0 78 0 C 74 0 71 1 68 3 L 3 67 C 1 69 0 72 0 76 L 0 176 C 0 180 1 183 3 185 L 67 281 L 67 718 L 2 814 C 1 817 0 819 0 823 L 0 923 C 0 927 1 930 4 933 L 70 995 C 72 998 76 999 79 999 C 81 999 83 999 84 998 C 89 996 93 991 93 986 L 93 918 L 93 892 L 120 865 L 155 865 L 182 892 L 182 918 L 182 986 C 182 992 186 996 191 999 C 192 999 194 1000 196 1000 C 200 1000 203 998 206 996 L 271 932 C 273 930 275 927 275 923 L 275 823 C 275 819 273 816 271 814 L 207 718 L 207 281 L 272 185 z"/>
</svg>